<svg xmlns="http://www.w3.org/2000/svg" viewBox="0 0 472.615 472.615" xmlns:v="https://vecta.io/nano"><path d="M236.308 0c-13.153 0-23.817 10.663-23.817 23.817v82.961c0 13.154 10.663 23.817 23.817 23.817a23.82 23.82 0 0 0 23.817-23.817V23.817C260.125 10.664 249.461 0 236.308 0zm-74.75 127.875l-58.662-58.662c-9.301-9.301-24.381-9.301-33.683 0a23.82 23.82 0 0 0 0 33.682l58.663 58.663a23.82 23.82 0 0 0 33.682 0c9.301-9.302 9.301-24.382 0-33.683zm-54.779 84.616H23.817C10.663 212.491 0 223.154 0 236.308s10.663 23.817 23.817 23.817h82.962c13.154 0 23.817-10.663 23.817-23.817s-10.664-23.817-23.817-23.817zm54.779 98.566a23.82 23.82 0 0 0-33.682 0L69.213 369.72c-9.301 9.301-9.301 24.381 0 33.682s24.382 9.301 33.683 0l58.662-58.662c9.301-9.301 9.301-24.381 0-33.683zm74.75 30.963c-13.153 0-23.817 10.663-23.817 23.817v82.961c0 13.154 10.663 23.817 23.817 23.817s23.817-10.663 23.817-23.817v-82.961c0-13.153-10.664-23.817-23.817-23.817zm167.094 27.701l-58.662-58.663a23.82 23.82 0 0 0-33.683 0c-9.301 9.302-9.301 24.382 0 33.683l58.663 58.662c9.301 9.301 24.381 9.301 33.682 0s9.301-24.382 0-33.682zm45.397-157.23h-82.962c-13.154 0-23.818 10.662-23.818 23.817a23.82 23.82 0 0 0 23.818 23.817h82.962c13.154 0 23.817-10.663 23.817-23.817s-10.664-23.817-23.817-23.817zM403.402 69.213c-9.301-9.301-24.381-9.301-33.682 0l-58.663 58.662c-9.301 9.301-9.301 24.381 0 33.683a23.82 23.82 0 0 0 33.683 0l58.662-58.663c9.301-9.301 9.301-24.381 0-33.682z"/></svg>